<svg width="25" height="25" viewBox="0 0 25 25" fill="none" xmlns="http://www.w3.org/2000/svg">
<path fill-rule="evenodd" clip-rule="evenodd" d="M21.5365 12.876C21.5365 9.67803 16.0595 6.56403 14.9615 5.97203C14.4745 5.70903 13.8685 5.89103 13.6065 6.37803C13.3455 6.86303 13.5255 7.47003 14.0125 7.73203C15.8435 8.72103 18.2665 10.458 19.1715 11.877H5.5365C4.9835 11.877 4.5365 12.324 4.5365 12.877C4.5365 13.429 4.9835 13.877 5.5365 13.877H19.1695C18.2635 15.296 15.8425 17.033 14.0125 18.021C13.5255 18.284 13.3455 18.89 13.6065 19.376C13.7875 19.711 14.1325 19.901 14.4875 19.901C14.6475 19.901 14.8105 19.863 14.9615 19.781C16.0585 19.189 21.5315 16.077 21.5365 12.879V12.876Z" fill="black"/>
</svg>
